# xmcd CD database file
#
# Track frame offsets:
#	150
#	18519
#	35940
#	67184
#	81285
#	97491
#	126538
#	143197
#	170739
#	186919
#	214974
#	231025
#	261333
#	274890
#	305872
#	322659
#
# Disc length: 4547 seconds
#
# Revision: 1
# Processed by: cddbd v1.5.2PL0 Copyright (c) Steve Scherf et al.
# Submitted via: CDex 1.79
#
DISCID=0911c110
DTITLE=Yellowman - Most Wanted
DYEAR=2007
DGENRE=Reggae
TTITLE0=Mr. Chin
TTITLE1=Morning Ride
TTITLE2=Who Can Make The Ram Dance (12'' Mix)
TTITLE3=Mr. Wong (Featuring Fathead)
TTITLE4=Yellowman Getting Married
TTITLE5=Zungguzungguguzungguzeng (12'' Mix)
TTITLE6=Nobody Move Nobody Get Hurt
TTITLE7=Hold On To Your Woman (12'' Mix) (Featuring Fathead)
TTITLE8=Galong Galong Galong
TTITLE9=Rub And Go Down (12'' Mix)
TTITLE10=Body Move
TTITLE11=Rub A Dub A Play (12'' Mix) (Featuring Fathead)
TTITLE12=Wreck A Pum Pum
TTITLE13=Rat (12'' Mix) (Feat. Fathead)
TTITLE14=Blueberry Hill
TTITLE15=Where Is Santa Claus (Featuring Mrs. Yellowman)
EXTD=YEAR: 2007
EXTT0=
EXTT1=
EXTT2=
EXTT3=
EXTT4=
EXTT5=
EXTT6=
EXTT7=
EXTT8=
EXTT9=
EXTT10=
EXTT11=
EXTT12=
EXTT13=
EXTT14=
EXTT15=
PLAYORDER=
